<?xml version="1.0" standalone="no"?>
<!DOCTYPE svg PUBLIC "-//W3C//DTD SVG 20010904//EN"
 "http://www.w3.org/TR/2001/REC-SVG-20010904/DTD/svg10.dtd">
<svg version="1.0" xmlns="http://www.w3.org/2000/svg"
 width="400.000000pt" height="400.000000pt" viewBox="0 0 400.000000 400.000000"
 preserveAspectRatio="xMidYMid meet">
<metadata>
Created by potrace 1.11, written by Peter Selinger 2001-2013
</metadata>
<g transform="translate(0.000000,400.000000) scale(0.100000,-0.100000)"
fill="#000000" stroke="none">
<path d="M1718 3845 c-592 -96 -1099 -458 -1367 -976 -150 -288 -211 -538
-211 -864 0 -326 61 -576 211 -864 255 -492 724 -842 1289 -963 93 -20 134
-22 355 -22 221 0 262 2 355 22 332 71 633 221 880 438 294 259 505 628 592
1034 20 93 22 134 22 355 0 221 -2 262 -22 355 -36 170 -90 324 -169 479 -184
366 -458 640 -823 824 -162 82 -288 127 -459 164 -100 22 -146 26 -341 29
-161 2 -250 -1 -312 -11z m-138 -958 c9 -7 105 -115 214 -240 l199 -229 22 24
c12 13 102 115 201 228 98 113 185 210 194 217 25 20 69 15 95 -12 l25 -24 0
-545 c0 -384 -3 -552 -11 -570 -15 -32 -57 -50 -90 -37 -55 20 -54 10 -59 477
l-5 433 -160 -184 c-162 -187 -194 -213 -238 -196 -12 5 -94 92 -182 194
l-160 185 -5 -433 c-5 -466 -4 -456 -59 -476 -33 -13 -75 5 -90 37 -8 18 -11
186 -11 570 l0 545 25 24 c26 27 70 32 95 12z m-568 -737 c23 -18 26 -28 32
-132 21 -332 108 -544 294 -720 87 -82 182 -139 303 -182 236 -84 451 -85 696
-4 257 85 457 283 543 539 32 93 57 237 66 367 6 104 9 114 32 132 34 27 68
25 99 -6 26 -26 26 -26 20 -150 -27 -525 -284 -889 -729 -1035 -126 -41 -241
-59 -373 -59 -356 0 -682 153 -877 410 -64 85 -141 242 -173 354 -29 102 -55
286 -55 387 0 61 3 73 25 94 29 30 64 32 97 5z"/>
</g>
</svg>
